{"title":"American.Beauty.1999.AC3.5.1.BRRip.Xvid.RoSubbed-KRYSTY","uid":7600816,"size":1466427801,"categoryP":"video","categoryS":"movies","magnet":"?xt=urn:btih:37eec5d8249c5deb8f03da0e2f8c6de10fd8c94d&amp;dn=American.Beauty.1999.AC3.5.1.BRRip.Xvid.RoSubbed-KRYSTY&amp;tr=udp%3A%2F%2Ftracker.openbittorrent.com%3A80&amp;tr=udp%3A%2F%2Fopen.demonii.com%3A1337&amp;tr=udp%3A%2F%2Ftracker.coppersurfer.tk%3A6969&amp;tr=udp%3A%2F%2Fexodus.desync.com%3A6969","seeders":1,"leechers":0,"uploader":"yokrysty","files":-1,"time":1346811042,"description":"General\nComplete name                            : American BeautyAmerican Beauty.avi\nFormat                                   : AVI\nFormat/Info                              : Audio Video Interleave\nFile size                                : 1.37 GiB\nDuration                                 : 2h 1mn\nOverall bit rate                         : 1 611 Kbps\n\nVideo\nID                                       : 0\nFormat                                   : MPEG-4 Visual\nFormat profile                           : Advanced Simple@L5\nFormat settings, BVOP                    : 2\nFormat settings, QPel                    : Yes\nFormat settings, GMC                     : No warppoints\nFormat settings, Matrix                  : Default (H.263)\nCodec ID                                 : XVID\nCodec ID/Hint                            : XviD\nDuration                                 : 2h 1mn\nBit rate                                 : 1 219 Kbps\nWidth                                    : 720 pixels\nHeight                                   : 400 pixels\nDisplay aspect ratio                     : 16:9\nFrame rate                               : 23.976 fps\nColor space                              : YUV\nChroma subsampling                       : 4:2:0\nBit depth                                : 8 bits\nScan type                                : Progressive\nCompression mode                         : Lossy\nBits/(Pixel*Frame)                       : 0.177\nStream size                              : 1.03 GiB (76%)\nWriting library                          : XviD 1.2.1 (UTC 2008-12-04)\n\nAudio\nID                                       : 1\nFormat                                   : AC-3\nFormat/Info                              : Audio Coding 3\nMode extension                           : CM (complete main)\nFormat settings, Endianness              : Big\nCodec ID                                 : 2000\nDuration                                 : 2h 1mn\nBit rate mode                            : Constant\nBit rate                                 : 384 Kbps\nChannel(s)                               : 6 channels\nChannel positions                        : Front: L C R, Side: L R, LFE\nSampling rate                            : 48.0 KHz\nBit depth                                : 16 bits\nCompression mode                         : Lossy\nStream size                              : 333 MiB (24%)\nAlignment                                : Aligned on interleaves\nInterleave, duration                     : 64 ms (1.53 video frames)\nInterleave, preload duration             : 192 ms\nTitle                                    : American.Beauty.AC3.5.1\n\nSubtitle\nFormat                                   : SRT\nLanguage                                 : Romanian","torrent":{"xt":"urn:btih:37eec5d8249c5deb8f03da0e2f8c6de10fd8c94d","amp;dn":"American.Beauty.1999.AC3.5.1.BRRip.Xvid.RoSubbed-KRYSTY","amp;tr":["udp%3A%2F%2Ftracker.openbittorrent.com%3A80","udp%3A%2F%2Fopen.demonii.com%3A1337","udp%3A%2F%2Ftracker.coppersurfer.tk%3A6969","udp%3A%2F%2Fexodus.desync.com%3A6969"],"infoHash":"37eec5d8249c5deb8f03da0e2f8c6de10fd8c94d","infoHashBuffer":{"type":"Buffer","data":[55,238,197,216,36,156,93,235,143,3,218,14,47,140,109,225,15,216,201,77]},"announce":[],"urlList":[]}}